<?xml version="1.0" encoding="utf-8"?>
<!-- Generator: Adobe Illustrator 19.0.0, SVG Export Plug-In . SVG Version: 6.00 Build 0)  -->
<svg version="1.1" id="Layer_1" xmlns="http://www.w3.org/2000/svg" xmlns:xlink="http://www.w3.org/1999/xlink" x="0px" y="0px"
	 viewBox="-1063 1065 32 32" style="enable-background:new -1063 1065 32 32;" xml:space="preserve">
<style type="text/css">
	.st0{fill:#5596E6;}
	.st1{fill:#FFFFFF;}
</style>
<path class="st0" d="M-1063,1081.2c0-8.6,7.1-15.6,15.9-15.6c8.8,0,15.9,7,15.9,15.6c0,8.6-7.1,15.6-15.9,15.6
	C-1055.9,1096.8-1063,1089.8-1063,1081.2"/>
<path class="st1" d="M-1040.8,1083.8c-1.5,0-2.7-1.2-2.7-2.6c0,0,0,0,0,0c0,0,0,0,0,0c0-1.4,1.2-2.6,2.7-2.6c1.5,0,2.7,1.2,2.7,2.6
	C-1038.1,1082.6-1039.3,1083.8-1040.8,1083.8 M-1054.5,1082.7c-0.9,0-1.6-0.7-1.6-1.5c0-0.8,0.7-1.5,1.6-1.5c0.9,0,1.6,0.7,1.6,1.5
	C-1053,1082-1053.7,1082.7-1054.5,1082.7 M-1043.4,1088.5c0,0.8-0.7,1.5-1.6,1.5c-0.9,0-1.6-0.7-1.6-1.5s0.7-1.5,1.6-1.5
	C-1044.1,1086.9-1043.4,1087.6-1043.4,1088.5 M-1054.5,1090c-0.9,0-1.6-0.7-1.6-1.5s0.7-1.5,1.6-1.5c0.9,0,1.6,0.7,1.6,1.5
	S-1053.7,1090-1054.5,1090 M-1046.5,1073.9c0-0.8,0.7-1.5,1.6-1.5c0.9,0,1.6,0.7,1.6,1.5c0,0.5-0.3,1-0.7,1.3c0,0,0,0,0,0
	c0,0,0,0,0,0c-0.2,0.1-0.5,0.2-0.8,0.2C-1045.8,1075.4-1046.5,1074.7-1046.5,1073.9 M-1040.8,1078.1c-0.5,0-0.9,0.1-1.3,0.3
	l-1.7-2.8c0.5-0.4,0.8-0.9,0.8-1.6c0-1.1-0.9-2-2.1-2c-1.1,0-2.1,0.9-2.1,2c0,1.1,0.9,2,2.1,2c0.3,0,0.6-0.1,0.8-0.2l1.6,2.8
	c-0.8,0.5-1.4,1.4-1.4,2.4h-8.5c-0.1-1-1-1.8-2-1.8c-1.1,0-2.1,0.9-2.1,2c0,1.1,0.9,2,2.1,2c1,0,1.9-0.8,2-1.8h8.5
	c0,0.3,0.1,0.6,0.2,0.9l-9.1,4.9c-0.4-0.5-1-0.9-1.7-0.9c-1.1,0-2.1,0.9-2.1,2c0,1.1,0.9,2,2.1,2s2.1-0.9,2.1-2
	c0-0.3-0.1-0.5-0.1-0.7l9.1-4.9c0.2,0.4,0.6,0.7,1,1l-1.6,2.8c-0.2-0.1-0.5-0.2-0.8-0.2c-1.1,0-2.1,0.9-2.1,2c0,1.1,0.9,2,2.1,2
	c1.1,0,2.1-0.9,2.1-2c0-0.7-0.3-1.2-0.8-1.6l1.7-2.8c0.4,0.2,0.8,0.3,1.3,0.3c1.8,0,3.2-1.4,3.2-3.1
	C-1037.6,1079.5-1039.1,1078.1-1040.8,1078.1"/>
</svg>
